<?xml version="1.0" encoding="UTF-8"?>
<!DOCTYPE svg PUBLIC "-//W3C//DTD SVG 1.1//EN" "http://www.w3.org/Graphics/SVG/1.1/DTD/svg11.dtd">
<svg xmlns="http://www.w3.org/2000/svg" version="1.1" width="1380px" height="1380px" style="shape-rendering:geometricPrecision; text-rendering:geometricPrecision; image-rendering:optimizeQuality; fill-rule:evenodd; clip-rule:evenodd" xmlns:xlink="http://www.w3.org/1999/xlink">
<g><path style="opacity:1" fill="#5a9ad4" d="M 878.5,27.5 C 770.726,90.2258 662.726,152.726 554.5,215C 554.728,215.399 555.062,215.565 555.5,215.5C 518.879,230.303 485.212,249.97 454.5,274.5C 454.44,273.957 454.107,273.624 453.5,273.5C 308.976,356.592 164.642,439.926 20.5,523.5C 61.6822,365.886 146.682,237.719 275.5,139C 436.423,22.3584 615.423,-19.975 812.5,12C 834.831,15.9167 856.831,21.0834 878.5,27.5 Z"/></g>
<g><path style="opacity:1" fill="#5b97d3" d="M 878.5,27.5 C 898.988,32.7737 918.988,39.4403 938.5,47.5C 861.224,93.1449 783.557,138.312 705.5,183C 705.728,183.399 706.062,183.565 706.5,183.5C 654.698,186.728 604.364,197.395 555.5,215.5C 555.062,215.565 554.728,215.399 554.5,215C 662.726,152.726 770.726,90.2258 878.5,27.5 Z"/></g>
<g><path style="opacity:1" fill="#5c92d0" d="M 938.5,47.5 C 962.764,56.7979 986.431,67.4645 1009.5,79.5C 948.393,115.226 887.06,150.726 825.5,186C 826.056,186.383 826.389,186.883 826.5,187.5C 816.22,185.953 805.887,184.953 795.5,184.5C 793.734,182.229 791.734,180.063 789.5,178C 786.833,177.333 784.167,177.333 781.5,178C 780.418,179.33 779.751,180.83 779.5,182.5C 755.156,182.311 730.823,182.645 706.5,183.5C 706.062,183.565 705.728,183.399 705.5,183C 783.557,138.312 861.224,93.1449 938.5,47.5 Z"/></g>
<g><path style="opacity:1" fill="#5d8ece" d="M 1009.5,79.5 C 1015.19,82.0089 1020.53,85.0089 1025.5,88.5C 1024.36,90.4331 1022.69,91.9331 1020.5,93C 963.607,125.608 906.94,158.441 850.5,191.5C 842.538,189.951 834.538,188.617 826.5,187.5C 826.389,186.883 826.056,186.383 825.5,186C 887.06,150.726 948.393,115.226 1009.5,79.5 Z"/></g>
<g><path style="opacity:1" fill="#5e8bcd" d="M 1025.5,88.5 C 1041,96.7453 1056,105.745 1070.5,115.5C 1070.06,117.074 1069.06,118.241 1067.5,119C 1015.83,148.667 964.167,178.333 912.5,208C 913.056,208.383 913.389,208.883 913.5,209.5C 892.975,201.786 871.975,195.786 850.5,191.5C 906.94,158.441 963.607,125.608 1020.5,93C 1022.69,91.9331 1024.36,90.4331 1025.5,88.5 Z"/></g>
<g><path style="opacity:1" fill="#5f86ca" d="M 1070.5,115.5 C 1089.37,127.708 1107.37,141.042 1124.5,155.5C 1074.5,184.833 1024.5,214.167 974.5,243.5C 955.658,229.696 935.324,218.362 913.5,209.5C 913.389,208.883 913.056,208.383 912.5,208C 964.167,178.333 1015.83,148.667 1067.5,119C 1069.06,118.241 1070.06,117.074 1070.5,115.5 Z"/></g>
<g><path style="opacity:1" fill="#5f81c8" d="M 1124.5,155.5 C 1136.1,164.132 1147.1,173.465 1157.5,183.5C 1106.67,213.083 1055.67,242.416 1004.5,271.5C 994.827,261.828 984.827,252.494 974.5,243.5C 1024.5,214.167 1074.5,184.833 1124.5,155.5 Z"/></g>
<g><path style="opacity:1" fill="#7031a0" d="M 795.5,184.5 C 801.809,201.162 802.976,218.162 799,235.5C 789.982,250.385 777.816,253.552 762.5,245C 752.004,236.108 749.837,225.608 756,213.5C 762.333,208.167 768.667,202.833 775,197.5C 777.821,192.897 779.321,187.897 779.5,182.5C 779.751,180.83 780.418,179.33 781.5,178C 784.167,177.333 786.833,177.333 789.5,178C 791.734,180.063 793.734,182.229 795.5,184.5 Z"/></g>
<g><path style="opacity:1" fill="#fefefe" d="M 779.5,182.5 C 779.321,187.897 777.821,192.897 775,197.5C 768.667,202.833 762.333,208.167 756,213.5C 749.837,225.608 752.004,236.108 762.5,245C 777.816,253.552 789.982,250.385 799,235.5C 802.976,218.162 801.809,201.162 795.5,184.5C 805.887,184.953 816.22,185.953 826.5,187.5C 834.538,188.617 842.538,189.951 850.5,191.5C 871.975,195.786 892.975,201.786 913.5,209.5C 935.324,218.362 955.658,229.696 974.5,243.5C 984.827,252.494 994.827,261.828 1004.5,271.5C 1011.59,280.578 1018.25,289.912 1024.5,299.5C 1034.71,318.245 1042.38,337.912 1047.5,358.5C 1049.38,369.615 1051.04,380.615 1052.5,391.5C 1053.7,408.506 1053.7,425.506 1052.5,442.5C 1051.08,464.074 1048.08,485.407 1043.5,506.5C 1041.18,518.435 1039.18,530.435 1037.5,542.5C 1033.99,560.683 1030.66,579.016 1027.5,597.5C 1022.62,624.12 1017.95,650.787 1013.5,677.5C 1011.62,686.792 1009.95,696.125 1008.5,705.5C 1005.29,722.787 1002.29,740.12 999.5,757.5C 994.726,784.48 990.059,811.48 985.5,838.5C 981.901,856.993 978.568,875.659 975.5,894.5C 972.872,906.356 970.872,918.356 969.5,930.5C 963.966,958.034 958.966,985.701 954.5,1013.5C 952.239,1028.34 949.239,1043 945.5,1057.5C 936.208,1081.63 920.541,1100.46 898.5,1114C 875.669,1127.03 851.335,1131.19 825.5,1126.5C 812.455,1122.8 801.122,1116.13 791.5,1106.5C 777.156,1089.15 771.156,1069.15 773.5,1046.5C 774.8,1039.68 775.8,1032.68 776.5,1025.5C 781.353,1001.39 785.686,977.058 789.5,952.5C 794.471,925.677 799.138,898.677 803.5,871.5C 808.72,844.634 813.387,817.634 817.5,790.5C 822.989,764.107 827.655,737.44 831.5,710.5C 837.152,680.257 842.485,649.923 847.5,619.5C 851.857,596.695 855.857,573.695 859.5,550.5C 865.569,519.756 870.903,488.756 875.5,457.5C 878.081,437.738 876.247,418.405 870,399.5C 868.96,396.177 867.46,393.177 865.5,390.5C 856.458,371.957 842.791,357.79 824.5,348C 818.76,344.811 812.76,342.311 806.5,340.5C 797.912,336.766 788.912,334.099 779.5,332.5C 782.8,312.501 786.8,292.667 791.5,273C 785.635,265.487 777.969,260.821 768.5,259C 761.996,258.07 755.662,258.736 749.5,261C 748.667,261.833 747.833,262.667 747,263.5C 742.465,285.025 737.632,306.358 732.5,327.5C 722.143,327.328 711.81,327.661 701.5,328.5C 657.483,331.447 617.816,345.947 582.5,372C 565.577,385.74 552.244,402.24 542.5,421.5C 537.284,430.611 533.117,440.278 530,450.5C 525.62,468.658 522.12,486.992 519.5,505.5C 513.475,536.641 507.809,567.974 502.5,599.5C 497.315,627.462 492.315,655.462 487.5,683.5C 481.952,713.453 476.619,743.453 471.5,773.5C 467.408,796.143 463.408,818.81 459.5,841.5C 453.842,872.445 448.509,903.445 443.5,934.5C 438.195,961.316 433.195,988.316 428.5,1015.5C 426.337,1058.36 407.337,1091.19 371.5,1114C 343.63,1129.93 314.63,1132.6 284.5,1122C 277.609,1118.06 270.942,1113.9 264.5,1109.5C 249.015,1093.4 241.348,1074.07 241.5,1051.5C 244.073,1033.49 246.74,1015.49 249.5,997.5C 252.432,985.072 254.765,972.406 256.5,959.5C 261.098,937.07 265.098,914.403 268.5,891.5C 271.923,873.308 275.256,854.975 278.5,836.5C 280.873,824.225 282.873,811.892 284.5,799.5C 289.579,773.701 294.246,747.701 298.5,721.5C 301.526,706.352 304.193,691.019 306.5,675.5C 310.009,658.284 313.009,640.951 315.5,623.5C 320.58,597.697 325.246,571.697 329.5,545.5C 333.247,526.358 336.58,507.024 339.5,487.5C 341.656,480.444 342.989,473.11 343.5,465.5C 349.539,435.049 359.206,405.716 372.5,377.5C 392.32,337.329 419.654,302.996 454.5,274.5C 485.212,249.97 518.879,230.303 555.5,215.5C 604.364,197.395 654.698,186.728 706.5,183.5C 730.823,182.645 755.156,182.311 779.5,182.5 Z"/></g>
<g><path style="opacity:1" fill="#607dc6" d="M 1157.5,183.5 C 1165.83,191.167 1173.83,199.167 1181.5,207.5C 1129.33,238.419 1077,269.086 1024.5,299.5C 1018.25,289.912 1011.59,280.578 1004.5,271.5C 1055.67,242.416 1106.67,213.083 1157.5,183.5 Z"/></g>
<g><path style="opacity:1" fill="#6179c3" d="M 1181.5,207.5 C 1196.91,222.242 1211.24,237.908 1224.5,254.5C 1224.63,255.376 1224.3,256.043 1223.5,256.5C 1164.54,290.164 1105.87,324.164 1047.5,358.5C 1042.38,337.912 1034.71,318.245 1024.5,299.5C 1077,269.086 1129.33,238.419 1181.5,207.5 Z"/></g>
<g><path style="opacity:1" fill="#6274c1" d="M 1224.5,254.5 C 1230.47,262.142 1236.47,269.809 1242.5,277.5C 1241.97,279.624 1240.64,281.124 1238.5,282C 1176.83,317.5 1115.17,353 1053.5,388.5C 1052.61,389.325 1052.28,390.325 1052.5,391.5C 1051.04,380.615 1049.38,369.615 1047.5,358.5C 1105.87,324.164 1164.54,290.164 1223.5,256.5C 1224.3,256.043 1224.63,255.376 1224.5,254.5 Z"/></g>
<g><path style="opacity:1" fill="#7030a0" d="M 779.5,332.5 C 778.448,336.426 777.782,340.426 777.5,344.5C 762.219,341.244 746.886,338.244 731.5,335.5C 732.092,332.873 732.425,330.206 732.5,327.5C 737.632,306.358 742.465,285.025 747,263.5C 747.833,262.667 748.667,261.833 749.5,261C 755.662,258.736 761.996,258.07 768.5,259C 777.969,260.821 785.635,265.487 791.5,273C 786.8,292.667 782.8,312.501 779.5,332.5 Z"/></g>
<g><path style="opacity:1" fill="#5b97d3" d="M 454.5,274.5 C 419.654,302.996 392.32,337.329 372.5,377.5C 372.631,376.761 372.464,376.094 372,375.5C 251,445.5 130,515.5 9,585.5C 8.50999,584.207 8.34332,582.873 8.5,581.5C 10.9474,561.73 14.9474,542.396 20.5,523.5C 164.642,439.926 308.976,356.592 453.5,273.5C 454.107,273.624 454.44,273.957 454.5,274.5 Z"/></g>
<g><path style="opacity:1" fill="#6271c0" d="M 1242.5,277.5 C 1251.24,288.637 1259.24,300.304 1266.5,312.5C 1196.19,352.988 1125.86,393.488 1055.5,434C 1054,436.714 1053,439.547 1052.5,442.5C 1053.7,425.506 1053.7,408.506 1052.5,391.5C 1052.28,390.325 1052.61,389.325 1053.5,388.5C 1115.17,353 1176.83,317.5 1238.5,282C 1240.64,281.124 1241.97,279.624 1242.5,277.5 Z"/></g>
<g><path style="opacity:1" fill="#646cbd" d="M 1266.5,312.5 C 1277.41,327.294 1287.07,342.96 1295.5,359.5C 1212.53,407.322 1129.53,455.155 1046.5,503C 1045.36,504.145 1044.36,505.312 1043.5,506.5C 1048.08,485.407 1051.08,464.074 1052.5,442.5C 1053,439.547 1054,436.714 1055.5,434C 1125.86,393.488 1196.19,352.988 1266.5,312.5 Z"/></g>
<g><path style="opacity:1" fill="#6087cb" d="M 732.5,327.5 C 732.425,330.206 732.092,332.873 731.5,335.5C 746.886,338.244 762.219,341.244 777.5,344.5C 777.782,340.426 778.448,336.426 779.5,332.5C 788.912,334.099 797.912,336.766 806.5,340.5C 796.833,345.331 787.5,350.664 778.5,356.5C 733.869,345.584 689.869,347.584 646.5,362.5C 663.606,352.108 680.939,341.941 698.5,332C 700.063,331.241 701.063,330.074 701.5,328.5C 711.81,327.661 722.143,327.328 732.5,327.5 Z"/></g>
<g><path style="opacity:1" fill="#5f8bcd" d="M 701.5,328.5 C 701.063,330.074 700.063,331.241 698.5,332C 680.939,341.941 663.606,352.108 646.5,362.5C 631.278,368.778 617.278,377.111 604.5,387.5C 604.103,386.475 603.437,386.308 602.5,387C 582.608,398.776 562.608,410.276 542.5,421.5C 552.244,402.24 565.577,385.74 582.5,372C 617.816,345.947 657.483,331.447 701.5,328.5 Z"/></g>
<g><path style="opacity:1" fill="#fefefe" d="M 778.5,356.5 C 806.418,363.953 826.752,380.62 839.5,406.5C 842.042,413.297 843.876,420.297 845,427.5C 846.203,443.974 845.369,460.307 842.5,476.5C 837.036,506.083 832.036,535.75 827.5,565.5C 822.862,588.983 818.529,612.649 814.5,636.5C 810.686,656.429 807.186,676.429 804,696.5C 801.926,704.902 797.759,712.069 791.5,718C 793.858,721.911 795.525,726.078 796.5,730.5C 792.171,757.154 787.837,783.821 783.5,810.5C 778.35,838.109 773.35,865.775 768.5,893.5C 763.702,919.083 759.369,944.75 755.5,970.5C 744.317,1021.02 714.317,1055.02 665.5,1072.5C 631.614,1083.77 596.947,1087.1 561.5,1082.5C 534.976,1079.67 511.976,1069.34 492.5,1051.5C 478.292,1034.89 470.958,1015.55 470.5,993.5C 470.334,986.492 470.5,979.492 471,972.5C 474.214,953.497 477.381,934.497 480.5,915.5C 486.289,883.979 491.955,852.312 497.5,820.5C 501.823,796.896 505.823,773.229 509.5,749.5C 510.949,743.619 512.449,737.619 514,731.5C 517.124,726.049 520.624,720.883 524.5,716C 521.376,710.753 520.043,705.086 520.5,699C 521.69,685.694 523.69,672.528 526.5,659.5C 531.352,632.533 536.019,605.533 540.5,578.5C 546.204,548.245 551.537,517.911 556.5,487.5C 558.886,469.101 563.386,451.101 570,433.5C 578.286,415.72 589.786,400.386 604.5,387.5C 617.278,377.111 631.278,368.778 646.5,362.5C 689.869,347.584 733.869,345.584 778.5,356.5 Z"/></g>
<g><path style="opacity:1" fill="#6468bc" d="M 1295.5,359.5 C 1300.42,368.343 1305.09,377.343 1309.5,386.5C 1218.58,437.964 1127.91,489.964 1037.5,542.5C 1039.18,530.435 1041.18,518.435 1043.5,506.5C 1044.36,505.312 1045.36,504.145 1046.5,503C 1129.53,455.155 1212.53,407.322 1295.5,359.5 Z"/></g>
<g><path style="opacity:1" fill="#6280c7" d="M 806.5,340.5 C 812.76,342.311 818.76,344.811 824.5,348C 842.791,357.79 856.458,371.957 865.5,390.5C 856.546,395.471 847.88,400.805 839.5,406.5C 826.752,380.62 806.418,363.953 778.5,356.5C 787.5,350.664 796.833,345.331 806.5,340.5 Z"/></g>
<g><path style="opacity:1" fill="#5c92d0" d="M 372.5,377.5 C 359.206,405.716 349.539,435.049 343.5,465.5C 229.159,530.363 114.825,596.029 0.5,662.5C 0.5,660.833 0.5,659.167 0.5,657.5C 1.07614,631.807 3.74281,606.474 8.5,581.5C 8.34332,582.873 8.50999,584.207 9,585.5C 130,515.5 251,445.5 372,375.5C 372.464,376.094 372.631,376.761 372.5,377.5 Z"/></g>
<g><path style="opacity:1" fill="#6087cb" d="M 604.5,387.5 C 589.786,400.386 578.286,415.72 570,433.5C 563.386,451.101 558.886,469.101 556.5,487.5C 556.719,486.325 556.386,485.325 555.5,484.5C 543.472,491.512 531.472,498.512 519.5,505.5C 522.12,486.992 525.62,468.658 530,450.5C 533.117,440.278 537.284,430.611 542.5,421.5C 562.608,410.276 582.608,398.776 602.5,387C 603.437,386.308 604.103,386.475 604.5,387.5 Z"/></g>
<g><path style="opacity:1" fill="#6565ba" d="M 1309.5,386.5 C 1315.7,398.906 1321.37,411.573 1326.5,424.5C 1226.67,481.914 1127,539.581 1027.5,597.5C 1030.66,579.016 1033.99,560.683 1037.5,542.5C 1127.91,489.964 1218.58,437.964 1309.5,386.5 Z"/></g>
<g><path style="opacity:1" fill="#627ac4" d="M 865.5,390.5 C 867.46,393.177 868.96,396.177 870,399.5C 876.247,418.405 878.081,437.738 875.5,457.5C 864.337,463.581 853.337,469.914 842.5,476.5C 845.369,460.307 846.203,443.974 845,427.5C 843.876,420.297 842.042,413.297 839.5,406.5C 847.88,400.805 856.546,395.471 865.5,390.5 Z"/></g>
<g><path style="opacity:1" fill="#6081c8" d="M 753.5,416.5 C 714.393,439.559 675.06,462.392 635.5,485C 632.762,486.174 630.762,488.007 629.5,490.5C 630.78,473.261 635.28,456.927 643,441.5C 656.363,422.891 674.529,412.058 697.5,409C 708.167,408.333 718.833,408.333 729.5,409C 738.088,409.974 746.088,412.474 753.5,416.5 Z"/></g>
<g><path style="opacity:1" fill="#617ec6" d="M 753.5,416.5 C 765.445,422.464 772.445,432.131 774.5,445.5C 772.067,444.671 769.733,445.171 767.5,447C 719.438,475.362 671.105,503.196 622.5,530.5C 624.833,517.167 627.167,503.833 629.5,490.5C 630.762,488.007 632.762,486.174 635.5,485C 675.06,462.392 714.393,439.559 753.5,416.5 Z"/></g>
<g><path style="opacity:1" fill="#6660b7" d="M 1326.5,424.5 C 1335.52,444.214 1343.19,464.547 1349.5,485.5C 1348.58,484.697 1347.58,484.53 1346.5,485C 1235.47,549.178 1124.47,613.345 1013.5,677.5C 1017.95,650.787 1022.62,624.12 1027.5,597.5C 1127,539.581 1226.67,481.914 1326.5,424.5 Z"/></g>
<g><path style="opacity:1" fill="#6179c4" d="M 774.5,445.5 C 774.666,451.842 774.5,458.175 774,464.5C 770.803,484.027 767.303,503.361 763.5,522.5C 712.555,551.643 661.555,580.81 610.5,610C 609.219,611.409 608.219,612.909 607.5,614.5C 612.503,586.469 617.503,558.469 622.5,530.5C 671.105,503.196 719.438,475.362 767.5,447C 769.733,445.171 772.067,444.671 774.5,445.5 Z"/></g>
<g><path style="opacity:1" fill="#5d8ecf" d="M 343.5,465.5 C 342.989,473.11 341.656,480.444 339.5,487.5C 339.44,486.957 339.107,486.624 338.5,486.5C 225.918,551.374 113.418,616.374 1,681.5C 0.500461,675.175 0.333794,668.842 0.5,662.5C 114.825,596.029 229.159,530.363 343.5,465.5 Z"/></g>
<g><path style="opacity:1" fill="#6181c8" d="M 556.5,487.5 C 551.537,517.911 546.204,548.245 540.5,578.5C 528.128,586.02 515.461,593.02 502.5,599.5C 507.809,567.974 513.475,536.641 519.5,505.5C 531.472,498.512 543.472,491.512 555.5,484.5C 556.386,485.325 556.719,486.325 556.5,487.5 Z"/></g>
<g><path style="opacity:1" fill="#675cb5" d="M 1349.5,485.5 C 1351.81,492.746 1353.81,500.08 1355.5,507.5C 1354.88,507.389 1354.38,507.056 1354,506.5C 1238.86,572.983 1123.69,639.317 1008.5,705.5C 1009.95,696.125 1011.62,686.792 1013.5,677.5C 1124.47,613.345 1235.47,549.178 1346.5,485C 1347.58,484.53 1348.58,484.697 1349.5,485.5 Z"/></g>
<g><path style="opacity:1" fill="#5d8bcd" d="M 339.5,487.5 C 336.58,507.024 333.247,526.358 329.5,545.5C 220.392,607.89 111.392,670.557 2.5,733.5C 1.82434,732.398 1.15767,731.398 0.5,730.5C 0.737305,729.209 0.403972,728.209 -0.5,727.5C -0.5,704.167 -0.5,680.833 -0.5,657.5C -0.166667,657.5 0.166667,657.5 0.5,657.5C 0.5,659.167 0.5,660.833 0.5,662.5C 0.333794,668.842 0.500461,675.175 1,681.5C 113.418,616.374 225.918,551.374 338.5,486.5C 339.107,486.624 339.44,486.957 339.5,487.5 Z"/></g>
<g><path style="opacity:1" fill="#6473c1" d="M 875.5,457.5 C 870.903,488.756 865.569,519.756 859.5,550.5C 859.649,549.448 859.483,548.448 859,547.5C 848.554,553.638 838.054,559.638 827.5,565.5C 832.036,535.75 837.036,506.083 842.5,476.5C 853.337,469.914 864.337,463.581 875.5,457.5 Z"/></g>
<g><path style="opacity:1" fill="#6859b4" d="M 1355.5,507.5 C 1359.71,520.502 1363.04,533.836 1365.5,547.5C 1243.24,617.1 1121.24,687.1 999.5,757.5C 1002.29,740.12 1005.29,722.787 1008.5,705.5C 1123.69,639.317 1238.86,572.983 1354,506.5C 1354.38,507.056 1354.88,507.389 1355.5,507.5 Z"/></g>
<g><path style="opacity:1" fill="#6275c2" d="M 763.5,522.5 C 761.447,536.008 759.114,549.342 756.5,562.5C 756.483,560.972 755.816,560.472 754.5,561C 703.728,590.715 652.728,619.882 601.5,648.5C 603.407,637.149 605.407,625.815 607.5,614.5C 608.219,612.909 609.219,611.409 610.5,610C 661.555,580.81 712.555,551.643 763.5,522.5 Z"/></g>
<g><path style="opacity:1" fill="#5e86ca" d="M 329.5,545.5 C 325.246,571.697 320.58,597.697 315.5,623.5C 212.806,682.512 110.139,741.512 7.5,800.5C 3.84849,777.303 1.51515,753.969 0.5,730.5C 1.15767,731.398 1.82434,732.398 2.5,733.5C 111.392,670.557 220.392,607.89 329.5,545.5 Z"/></g>
<g><path style="opacity:1" fill="#656ebe" d="M 859.5,550.5 C 855.857,573.695 851.857,596.695 847.5,619.5C 847.103,618.475 846.437,618.308 845.5,619C 835.436,625.364 825.103,631.197 814.5,636.5C 818.529,612.649 822.862,588.983 827.5,565.5C 838.054,559.638 848.554,553.638 859,547.5C 859.483,548.448 859.649,549.448 859.5,550.5 Z"/></g>
<g><path style="opacity:1" fill="#6854b1" d="M 1365.5,547.5 C 1370.57,570.242 1374.23,593.242 1376.5,616.5C 1375.73,615.737 1375.23,614.737 1375,613.5C 1245.22,688.638 1115.39,763.638 985.5,838.5C 990.059,811.48 994.726,784.48 999.5,757.5C 1121.24,687.1 1243.24,617.1 1365.5,547.5 Z"/></g>
<g><path style="opacity:1" fill="#6371c0" d="M 756.5,562.5 C 754.098,579.404 751.098,596.071 747.5,612.5C 695.5,642.167 643.5,671.833 591.5,701.5C 595.017,683.883 598.351,666.216 601.5,648.5C 652.728,619.882 703.728,590.715 754.5,561C 755.816,560.472 756.483,560.972 756.5,562.5 Z"/></g>
<g><path style="opacity:1" fill="#627ac4" d="M 540.5,578.5 C 536.019,605.533 531.352,632.533 526.5,659.5C 514.073,666.076 501.74,672.91 489.5,680C 488.915,681.302 488.249,682.469 487.5,683.5C 492.315,655.462 497.315,627.462 502.5,599.5C 515.461,593.02 528.128,586.02 540.5,578.5 Z"/></g>
<g><path style="opacity:1" fill="#646dbe" d="M 747.5,612.5 C 744.057,636.273 740.057,659.939 735.5,683.5C 682.001,713.412 629.001,744.079 576.5,775.5C 578.992,761.198 581.325,746.864 583.5,732.5C 583.589,727.433 582.256,722.767 579.5,718.5C 584.727,713.719 588.727,708.052 591.5,701.5C 643.5,671.833 695.5,642.167 747.5,612.5 Z"/></g>
<g><path style="opacity:1" fill="#694faf" d="M 1376.5,616.5 C 1377.39,624.638 1378.39,632.638 1379.5,640.5C 1379.5,647.833 1379.5,655.167 1379.5,662.5C 1244.83,739.833 1110.17,817.167 975.5,894.5C 978.568,875.659 981.901,856.993 985.5,838.5C 1115.39,763.638 1245.22,688.638 1375,613.5C 1375.23,614.737 1375.73,615.737 1376.5,616.5 Z"/></g>
<g><path style="opacity:1" fill="#5f81c8" d="M 315.5,623.5 C 313.009,640.951 310.009,658.284 306.5,675.5C 209.636,731.431 112.636,787.098 15.5,842.5C 12.4469,828.568 9.78019,814.568 7.5,800.5C 110.139,741.512 212.806,682.512 315.5,623.5 Z"/></g>
<g><path style="opacity:1" fill="#6667bb" d="M 847.5,619.5 C 842.485,649.923 837.152,680.257 831.5,710.5C 819.671,716.914 808.004,723.58 796.5,730.5C 795.525,726.078 793.858,721.911 791.5,718C 797.759,712.069 801.926,704.902 804,696.5C 807.186,676.429 810.686,656.429 814.5,636.5C 825.103,631.197 835.436,625.364 845.5,619C 846.437,618.308 847.103,618.475 847.5,619.5 Z"/></g>
<g><path style="opacity:1" fill="#607dc6" d="M 306.5,675.5 C 304.193,691.019 301.526,706.352 298.5,721.5C 298.728,719.645 298.061,718.812 296.5,719C 206.296,771.366 115.963,823.533 25.5,875.5C 24.8165,875.137 24.1499,874.804 23.5,874.5C 20.5199,863.913 17.8532,853.246 15.5,842.5C 112.636,787.098 209.636,731.431 306.5,675.5 Z"/></g>
<g><path style="opacity:1" fill="#6a4bad" d="M 1379.5,662.5 C 1379.5,673.167 1379.5,683.833 1379.5,694.5C 1242.59,772.739 1105.93,851.406 969.5,930.5C 970.872,918.356 972.872,906.356 975.5,894.5C 1110.17,817.167 1244.83,739.833 1379.5,662.5 Z"/></g>
<g><path style="opacity:1" fill="#6569bc" d="M 735.5,683.5 C 732.565,694.128 732.898,704.628 736.5,715C 736.022,716.642 735.022,717.809 733.5,718.5C 679.004,749.247 624.671,780.247 570.5,811.5C 572.222,799.445 574.222,787.445 576.5,775.5C 629.001,744.079 682.001,713.412 735.5,683.5 Z"/></g>
<g><path style="opacity:1" fill="#6b47ab" d="M 1379.5,694.5 C 1379.5,710.5 1379.5,726.5 1379.5,742.5C 1378.41,752.861 1377.07,763.194 1375.5,773.5C 1375.66,771.801 1375.49,770.134 1375,768.5C 1236.25,848.793 1097.42,928.96 958.5,1009C 956.714,1010.2 955.381,1011.7 954.5,1013.5C 958.966,985.701 963.966,958.034 969.5,930.5C 1105.93,851.406 1242.59,772.739 1379.5,694.5 Z"/></g>
<g><path style="opacity:1" fill="#6473c1" d="M 526.5,659.5 C 523.69,672.528 521.69,685.694 520.5,699C 520.043,705.086 521.376,710.753 524.5,716C 520.624,720.883 517.124,726.049 514,731.5C 512.449,737.619 510.949,743.619 509.5,749.5C 497.646,756.506 485.646,763.339 473.5,770C 472.915,771.302 472.249,772.469 471.5,773.5C 476.619,743.453 481.952,713.453 487.5,683.5C 488.249,682.469 488.915,681.302 489.5,680C 501.74,672.91 514.073,666.076 526.5,659.5 Z"/></g>
<g><path style="opacity:1" fill="#6761b8" d="M 831.5,710.5 C 827.655,737.44 822.989,764.107 817.5,790.5C 806.167,797.167 794.833,803.833 783.5,810.5C 787.837,783.821 792.171,757.154 796.5,730.5C 808.004,723.58 819.671,716.914 831.5,710.5 Z"/></g>
<g><path style="opacity:1" fill="#6179c4" d="M 298.5,721.5 C 294.246,747.701 289.579,773.701 284.5,799.5C 205.771,843.724 127.105,888.891 48.5,935C 46.9751,936.009 45.3084,936.509 43.5,936.5C 35.8327,916.164 29.166,895.498 23.5,874.5C 24.1499,874.804 24.8165,875.137 25.5,875.5C 115.963,823.533 206.296,771.366 296.5,719C 298.061,718.812 298.728,719.645 298.5,721.5 Z"/></g>
<g><path style="opacity:1" fill="#6565ba" d="M 733.5,718.5 C 729.576,723.343 726.409,728.676 724,734.5C 721.108,749.294 718.274,763.961 715.5,778.5C 665.438,806.056 615.438,834.556 565.5,864C 563.975,865.009 562.308,865.509 560.5,865.5C 563.558,847.416 566.892,829.416 570.5,811.5C 624.671,780.247 679.004,749.247 733.5,718.5 Z"/></g>
<g><path style="opacity:1" fill="#656dbe" d="M 509.5,749.5 C 505.823,773.229 501.823,796.896 497.5,820.5C 484.806,827.512 472.14,834.512 459.5,841.5C 463.408,818.81 467.408,796.143 471.5,773.5C 472.249,772.469 472.915,771.302 473.5,770C 485.646,763.339 497.646,756.506 509.5,749.5 Z"/></g>
<g><path style="opacity:1" fill="#6c42a9" d="M 1375.5,773.5 C 1374.6,787.456 1372.6,801.123 1369.5,814.5C 1369.63,813.761 1369.46,813.094 1369,812.5C 1227.89,894.305 1086.72,975.971 945.5,1057.5C 949.239,1043 952.239,1028.34 954.5,1013.5C 955.381,1011.7 956.714,1010.2 958.5,1009C 1097.42,928.96 1236.25,848.793 1375,768.5C 1375.49,770.134 1375.66,771.801 1375.5,773.5 Z"/></g>
<g><path style="opacity:1" fill="#6660b8" d="M 715.5,778.5 C 711.09,804.883 706.423,831.217 701.5,857.5C 649.969,887.431 598.302,917.098 546.5,946.5C 551.059,919.478 555.726,892.478 560.5,865.5C 562.308,865.509 563.975,865.009 565.5,864C 615.438,834.556 665.438,806.056 715.5,778.5 Z"/></g>
<g><path style="opacity:1" fill="#6274c1" d="M 284.5,799.5 C 282.873,811.892 280.873,824.225 278.5,836.5C 204.031,878.902 129.698,921.569 55.5,964.5C 50.9858,955.462 46.9858,946.129 43.5,936.5C 45.3084,936.509 46.9751,936.009 48.5,935C 127.105,888.891 205.771,843.724 284.5,799.5 Z"/></g>
<g><path style="opacity:1" fill="#6c3fa7" d="M 1369.5,814.5 C 1367.75,827.477 1365.08,840.143 1361.5,852.5C 1361.72,851.325 1361.39,850.325 1360.5,849.5C 1070.83,1016.67 781.167,1183.83 491.5,1351C 490.748,1351.67 490.414,1352.5 490.5,1353.5C 478.285,1350.09 466.285,1346.09 454.5,1341.5C 577.886,1269.47 701.552,1197.8 825.5,1126.5C 851.335,1131.19 875.669,1127.03 898.5,1114C 920.541,1100.46 936.208,1081.63 945.5,1057.5C 1086.72,975.971 1227.89,894.305 1369,812.5C 1369.46,813.094 1369.63,813.761 1369.5,814.5 Z"/></g>
<g><path style="opacity:1" fill="#695bb5" d="M 817.5,790.5 C 813.387,817.634 808.72,844.634 803.5,871.5C 792.554,877.643 781.554,883.809 770.5,890C 769.915,891.302 769.249,892.469 768.5,893.5C 773.35,865.775 778.35,838.109 783.5,810.5C 794.833,803.833 806.167,797.167 817.5,790.5 Z"/></g>
<g><path style="opacity:1" fill="#6271c0" d="M 278.5,836.5 C 275.256,854.975 271.923,873.308 268.5,891.5C 268.649,890.448 268.483,889.448 268,888.5C 202.945,926.394 137.779,964.061 72.5,1001.5C 66.0311,989.56 60.3644,977.227 55.5,964.5C 129.698,921.569 204.031,878.902 278.5,836.5 Z"/></g>
<g><path style="opacity:1" fill="#6d3ba5" d="M 1361.5,852.5 C 1355.22,881.668 1346.55,910.001 1335.5,937.5C 1335.57,937.062 1335.4,936.728 1335,936.5C 1082.69,1082.07 830.522,1227.73 578.5,1373.5C 548.659,1369.04 519.326,1362.37 490.5,1353.5C 490.414,1352.5 490.748,1351.67 491.5,1351C 781.167,1183.83 1070.83,1016.67 1360.5,849.5C 1361.39,850.325 1361.72,851.325 1361.5,852.5 Z"/></g>
<g><path style="opacity:1" fill="#675cb6" d="M 701.5,857.5 C 699.941,867.187 698.274,876.854 696.5,886.5C 645.725,915.39 595.058,944.557 544.5,974C 543.552,974.483 542.552,974.649 541.5,974.5C 542.622,964.95 544.289,955.617 546.5,946.5C 598.302,917.098 649.969,887.431 701.5,857.5 Z"/></g>
<g><path style="opacity:1" fill="#6667bb" d="M 497.5,820.5 C 491.955,852.312 486.289,883.979 480.5,915.5C 480.631,914.624 480.298,913.957 479.5,913.5C 467.472,920.512 455.472,927.512 443.5,934.5C 448.509,903.445 453.842,872.445 459.5,841.5C 472.14,834.512 484.806,827.512 497.5,820.5 Z"/></g>
<g><path style="opacity:1" fill="#6955b2" d="M 803.5,871.5 C 799.138,898.677 794.471,925.677 789.5,952.5C 789.565,952.062 789.399,951.728 789,951.5C 778.185,958.49 767.018,964.823 755.5,970.5C 759.369,944.75 763.702,919.083 768.5,893.5C 769.249,892.469 769.915,891.302 770.5,890C 781.554,883.809 792.554,877.643 803.5,871.5 Z"/></g>
<g><path style="opacity:1" fill="#6859b4" d="M 696.5,886.5 C 693.686,903.867 690.686,921.2 687.5,938.5C 643.439,962.854 600.106,988.187 557.5,1014.5C 550.475,1009.46 545.641,1002.79 543,994.5C 541.79,987.888 541.29,981.222 541.5,974.5C 542.552,974.649 543.552,974.483 544.5,974C 595.058,944.557 645.725,915.39 696.5,886.5 Z"/></g>
<g><path style="opacity:1" fill="#636cbd" d="M 268.5,891.5 C 265.098,914.403 261.098,937.07 256.5,959.5C 203.968,989.596 151.634,1019.93 99.5,1050.5C 89.7543,1034.68 80.7543,1018.35 72.5,1001.5C 137.779,964.061 202.945,926.394 268,888.5C 268.483,889.448 268.649,890.448 268.5,891.5 Z"/></g>
<g><path style="opacity:1" fill="#6761b8" d="M 480.5,915.5 C 477.381,934.497 474.214,953.497 471,972.5C 470.5,979.492 470.334,986.492 470.5,993.5C 469.778,993.082 469.278,992.416 469,991.5C 455.613,999.726 442.113,1007.73 428.5,1015.5C 433.195,988.316 438.195,961.316 443.5,934.5C 455.472,927.512 467.472,920.512 479.5,913.5C 480.298,913.957 480.631,914.624 480.5,915.5 Z"/></g>
<g><path style="opacity:1" fill="#6e36a3" d="M 1335.5,937.5 C 1329.17,955.818 1321.5,973.485 1312.5,990.5C 1087.5,1119.66 862.832,1249.33 638.5,1379.5C 631.167,1379.5 623.833,1379.5 616.5,1379.5C 603.886,1377.79 591.22,1375.79 578.5,1373.5C 830.522,1227.73 1082.69,1082.07 1335,936.5C 1335.4,936.728 1335.57,937.062 1335.5,937.5 Z"/></g>
<g><path style="opacity:1" fill="#6956b2" d="M 687.5,938.5 C 685.1,954.432 681.6,970.098 677,985.5C 667.115,1005.37 651.282,1017.87 629.5,1023C 611.133,1027.5 592.8,1027.5 574.5,1023C 568.249,1021.21 562.582,1018.37 557.5,1014.5C 600.106,988.187 643.439,962.854 687.5,938.5 Z"/></g>
<g><path style="opacity:1" fill="#6468bb" d="M 256.5,959.5 C 254.765,972.406 252.432,985.072 249.5,997.5C 204.833,1023.17 160.167,1048.83 115.5,1074.5C 109.684,1066.88 104.35,1058.88 99.5,1050.5C 151.634,1019.93 203.968,989.596 256.5,959.5 Z"/></g>
<g><path style="opacity:1" fill="#6f33a1" d="M 1312.5,990.5 C 1302.77,1012.51 1291.43,1033.51 1278.5,1053.5C 1278.1,1052.47 1277.44,1052.31 1276.5,1053C 1088.27,1161.61 900.274,1270.44 712.5,1379.5C 687.833,1379.5 663.167,1379.5 638.5,1379.5C 862.832,1249.33 1087.5,1119.66 1312.5,990.5 Z"/></g>
<g><path style="opacity:1" fill="#6565ba" d="M 249.5,997.5 C 246.74,1015.49 244.073,1033.49 241.5,1051.5C 207.662,1070.58 173.996,1089.92 140.5,1109.5C 131.01,1098.67 122.676,1087.01 115.5,1074.5C 160.167,1048.83 204.833,1023.17 249.5,997.5 Z"/></g>
<g><path style="opacity:1" fill="#6a4dae" d="M 789.5,952.5 C 785.686,977.058 781.353,1001.39 776.5,1025.5C 627.903,1110.78 479.57,1196.44 331.5,1282.5C 327.205,1280.19 323.205,1277.53 319.5,1274.5C 434.11,1207.52 549.11,1141.02 664.5,1075C 665.252,1074.33 665.586,1073.5 665.5,1072.5C 714.317,1055.02 744.317,1021.02 755.5,970.5C 767.018,964.823 778.185,958.49 789,951.5C 789.399,951.728 789.565,952.062 789.5,952.5 Z"/></g>
<g><path style="opacity:1" fill="#685ab4" d="M 470.5,993.5 C 470.958,1015.55 478.292,1034.89 492.5,1051.5C 403.668,1101.75 315.335,1152.75 227.5,1204.5C 211.53,1190.2 196.197,1175.2 181.5,1159.5C 181.937,1157.93 182.937,1156.76 184.5,1156C 211.393,1140.73 238.06,1125.23 264.5,1109.5C 270.942,1113.9 277.609,1118.06 284.5,1122C 314.63,1132.6 343.63,1129.93 371.5,1114C 407.337,1091.19 426.337,1058.36 428.5,1015.5C 442.113,1007.73 455.613,999.726 469,991.5C 469.278,992.416 469.778,993.082 470.5,993.5 Z"/></g>
<g><path style="opacity:1" fill="#6a4bad" d="M 776.5,1025.5 C 775.8,1032.68 774.8,1039.68 773.5,1046.5C 773.631,1045.62 773.298,1044.96 772.5,1044.5C 630.202,1126.16 488.202,1208.16 346.5,1290.5C 341.368,1288.1 336.368,1285.43 331.5,1282.5C 479.57,1196.44 627.903,1110.78 776.5,1025.5 Z"/></g>
<g><path style="opacity:1" fill="#6b47ab" d="M 773.5,1046.5 C 771.156,1069.15 777.156,1089.15 791.5,1106.5C 665.165,1178.66 539.165,1251.33 413.5,1324.5C 390.13,1314.98 367.797,1303.65 346.5,1290.5C 488.202,1208.16 630.202,1126.16 772.5,1044.5C 773.298,1044.96 773.631,1045.62 773.5,1046.5 Z"/></g>
<g><path style="opacity:1" fill="#6660b7" d="M 241.5,1051.5 C 241.348,1074.07 249.015,1093.4 264.5,1109.5C 238.06,1125.23 211.393,1140.73 184.5,1156C 182.937,1156.76 181.937,1157.93 181.5,1159.5C 166.401,1143.95 152.735,1127.28 140.5,1109.5C 173.996,1089.92 207.662,1070.58 241.5,1051.5 Z"/></g>
<g><path style="opacity:1" fill="#6854b1" d="M 492.5,1051.5 C 511.976,1069.34 534.976,1079.67 561.5,1082.5C 468.89,1136.81 375.89,1190.65 282.5,1244C 280.937,1244.76 279.937,1245.93 279.5,1247.5C 261.39,1234.11 244.056,1219.78 227.5,1204.5C 315.335,1152.75 403.668,1101.75 492.5,1051.5 Z"/></g>
<g><path style="opacity:1" fill="#6f2f9f" d="M 1278.5,1053.5 C 1182.58,1205.86 1047.91,1307.36 874.5,1358C 837.901,1367.95 800.901,1375.12 763.5,1379.5C 746.5,1379.5 729.5,1379.5 712.5,1379.5C 900.274,1270.44 1088.27,1161.61 1276.5,1053C 1277.44,1052.31 1278.1,1052.47 1278.5,1053.5 Z"/></g>
<g><path style="opacity:1" fill="#694faf" d="M 665.5,1072.5 C 665.586,1073.5 665.252,1074.33 664.5,1075C 549.11,1141.02 434.11,1207.52 319.5,1274.5C 305.62,1266.28 292.287,1257.28 279.5,1247.5C 279.937,1245.93 280.937,1244.76 282.5,1244C 375.89,1190.65 468.89,1136.81 561.5,1082.5C 596.947,1087.1 631.614,1083.77 665.5,1072.5 Z"/></g>
<g><path style="opacity:1" fill="#6c42a9" d="M 791.5,1106.5 C 801.122,1116.13 812.455,1122.8 825.5,1126.5C 701.552,1197.8 577.886,1269.47 454.5,1341.5C 440.422,1336.62 426.756,1330.95 413.5,1324.5C 539.165,1251.33 665.165,1178.66 791.5,1106.5 Z"/></g>
</svg>
