<svg width="191" height="250" viewBox="0 0 191 250" fill="none" xmlns="http://www.w3.org/2000/svg">
<path d="M165.531 0C170.378 10.2818 175.013 20.4246 178.173 31.2259C182.566 46.2405 186.094 61.3692 188.086 76.9035C189.445 87.5009 190.967 98.0563 191.002 108.765C191.054 124.375 186.974 139.101 180.862 153.247C176.601 163.11 171.104 172.384 164.938 181.214C163.999 182.559 162.75 183.686 161.288 185.31C121.606 145.622 82.045 106.055 42.312 66.3166C40.011 70.9549 40.197 76.1037 39.247 80.9114C37.853 87.9601 37.675 95.2506 37.003 102.44C35.351 120.082 41.91 135.607 50.246 150.361C58.836 165.567 70.208 178.867 82.701 190.963C94.685 202.566 107.524 213.328 121.944 221.924C125.47 224.027 125.399 225.642 122.461 228.073C114.12 234.975 105.822 241.93 97.595 248.967C96.234 250.131 95.539 249.89 94.292 248.868C89.745 245.14 84.815 241.845 80.497 237.877C70.388 228.587 59.6 219.997 50.357 209.802C35.287 193.179 21.241 175.854 11.604 155.285C2.59001 136.047 -0.798989 115.831 1.16101 94.9548C3.53601 69.6538 7.965 44.654 16.993 20.7106C19.568 13.8817 22.041 7.00022 25.9 0.34441C26.444 -5.96046e-08 26.889 0 27.667 0C30.593 1.25904 32.561 3.28102 34.564 5.28514C71.985 42.7264 109.412 80.1613 146.875 117.56C148.224 118.907 149.42 121.544 151.443 120.827C153.41 120.13 152.661 117.294 153.106 115.409C154.948 107.599 153.266 99.796 152.556 92.0695C151.047 75.6468 148.249 59.4428 142.835 43.7443C138.351 30.7446 132.291 18.6087 124.673 7.19612C123.327 5.17965 121.307 3.39944 121.78 0.29816C136.354 -2.98023e-08 150.708 0 165.531 0Z" fill="#00A99D"/>
<path d="M151.089 197.679C146.67 205.221 139.806 210.138 134.209 216.231C133.285 217.237 132.15 217.2 131.046 216.492C122.478 211.001 113.88 205.568 106.214 198.79C103.889 196.735 103.943 195.424 106.156 193.271C112.093 187.493 118.108 181.767 123.583 175.105C126.536 173.324 128.234 175.121 129.897 176.714C133.466 180.133 136.891 183.7 140.415 187.165C142.75 189.461 144.835 192.049 148.14 193.16C150.007 193.788 151.048 195.251 151.089 197.679Z" fill="#7D88A1"/>
<path d="M151.407 197.904C150.083 193.89 145.502 194.205 143.112 191.683C138.573 186.895 133.82 182.309 129.144 177.651C127.873 176.385 126.749 174.839 124.261 174.974C124.571 174.041 125.421 173.203 125.907 172.19C127.208 169.477 128.829 169.323 130.853 171.35C138.09 178.603 145.246 185.939 152.591 193.081C155.005 195.429 153.004 196.397 151.407 197.904Z" fill="#7D88A1"/>
</svg>
